<svg width="154" height="163" viewBox="0 0 154 163" fill="none" xmlns="http://www.w3.org/2000/svg">
<path d="M42.4943 0.792095C39.9615 1.98821 39.3987 4.4508 39.469 13.2457C39.5394 22.1111 40.1726 24.3626 42.8461 25.6994C44.8864 26.7548 48.2634 25.7698 49.2484 23.8701C49.6705 23.1665 49.9519 18.5931 49.9519 13.6679C49.9519 3.95828 49.178 1.14389 46.2935 0.369938C44.3235 -0.12258 44.3235 -0.12258 42.4943 0.792095Z" fill="#7661D2"/>
<path d="M106.236 1.35493C104.97 2.6214 104.829 3.67679 104.829 13.1753C104.829 22.8146 104.97 23.7293 106.236 24.9254C108.276 26.7548 111.794 26.614 113.412 24.5736C114.679 23.0257 114.749 21.8999 114.538 12.7532C114.327 3.11392 114.256 2.55104 112.638 1.28457C110.528 -0.474424 107.995 -0.404064 106.236 1.35493Z" fill="#7661D2"/>
<path d="M24.2724 12.7532C21.4582 13.7383 18.5033 16.5526 16.8148 19.7892C15.6187 22.1814 15.478 24.0811 15.478 40.3342C15.478 58.2055 15.478 58.3463 17.0962 59.3313C17.9404 59.8942 19.629 60.457 20.7546 60.5978L22.8653 60.8088L23.0764 51.8028L23.2874 42.8671L39.9615 42.7968C83.3001 42.6561 130.368 42.9375 130.93 43.2893C131.282 43.5004 131.564 47.5812 131.564 52.4361C131.564 60.5978 131.634 61.1606 132.971 61.1606C135.292 61.1606 137.684 59.6831 138.599 57.7834C139.232 56.3762 139.303 51.5917 138.951 38.9974C138.529 24.7144 138.247 21.6889 137.122 19.5781C134.519 14.4419 129.805 11.9089 122.629 11.9089H118.9V17.608C118.9 24.2922 117.633 27.5991 114.467 29.2877C110.105 31.5392 104.055 30.0617 101.522 26.2623C100.678 24.9958 100.256 22.4629 100.045 18.1709L99.7632 11.9089H76.9682H54.1732V17.8895C54.1732 25.418 53.1179 27.6695 48.8262 29.6395C43.9718 31.7503 39.3283 30.2728 36.5845 25.7698C35.4588 24.0108 35.1774 22.2518 35.1774 17.6784V11.9089L30.8154 11.9793C28.353 11.9793 25.4684 12.3311 24.2724 12.7532Z" fill="#7661D2"/>
<path d="M90.406 53.21C86.9586 54.1247 79.9934 56.0244 74.9279 57.3612C69.9327 58.6981 65.5707 60.1756 65.2893 60.6681C65.0078 61.0903 64.7264 68.7595 64.7264 77.5545C64.7264 93.1743 64.7264 93.5261 63.3897 92.8225C59.5905 90.7821 53.0475 93.2446 51.0072 97.3959C46.7156 106.613 59.8719 113.156 67.1888 105.487C68.5445 104.086 69.3138 102.22 69.3394 100.271L69.5106 87.2641L69.7216 71.2924L75.4907 69.7445C78.6567 68.9002 83.8629 67.4227 87.0993 66.508L92.8684 64.8194V74.8808V84.8719L89.2099 84.5904C83.3001 84.1683 78.727 87.827 78.5863 93.1743C78.3753 101.899 92.0945 104.713 96.7379 96.833C97.9339 94.7926 98.0043 92.8225 97.8636 73.4736C97.7932 61.8643 97.5118 52.1546 97.2304 51.9436C96.949 51.6621 93.9237 52.225 90.406 53.21Z" fill="#7661D2"/>
<path d="M14.071 64.8193C14.071 66.0154 15.6891 68.4077 18.8551 71.9257C23.78 77.5544 25.3278 80.791 25.3278 85.3643C25.2574 90.9931 23.78 94.0889 18.0109 100.492C14.3524 104.573 13.3674 106.12 13.3674 107.879C13.4378 110.835 15.6891 115.76 17.5184 116.745C18.3626 117.167 22.3729 117.8 26.5238 118.152C41.0169 119.418 44.2532 123.147 46.0825 140.526C46.5749 144.818 46.6453 144.959 49.6002 146.718C55.299 150.025 56.6357 149.814 62.8269 144.678C69.8624 138.838 72.4655 137.571 77.3904 137.571C82.1745 137.642 84.3555 138.767 90.9689 144.537C94.4866 147.633 96.8083 149.11 98.0044 149.11C100.185 149.11 105.603 146.859 106.728 145.522C107.151 144.959 107.854 141.652 108.276 138.204C109.472 129.128 110.246 126.877 112.99 123.781C116.086 120.403 119.463 119.137 128.046 118.152C131.704 117.73 135.292 117.237 135.926 117.026C137.614 116.534 139.866 112.594 140.428 109.287C140.851 106.543 140.639 106.191 135.926 100.492C133.252 97.2551 130.579 93.5964 130.016 92.4707C126.92 86.4901 127.976 81.4242 133.674 74.2475C138.529 68.1262 140.288 65.4526 139.866 64.9601C139.373 64.4675 124.528 68.6891 123.402 69.6741C122.91 70.0963 121.503 72.77 120.307 75.7251C118.548 79.9467 118.126 81.9871 118.056 85.9976C118.056 92.8225 119.814 97.3255 125.091 103.939C126.428 105.628 127.413 107.035 127.272 107.176C127.131 107.246 124.317 107.879 121.01 108.583C106.939 111.538 101.03 117.589 98.4265 131.802L97.5822 136.375L95.0495 134.194C93.7127 132.998 90.195 130.887 87.3104 129.48C82.7374 127.299 81.2599 126.947 77.0386 126.947C71.3399 126.947 66.204 128.987 60.0831 133.631L56.4246 136.375L55.9321 133.139C55.0879 127.65 52.9069 121.318 50.6555 118.293C46.6453 112.734 39.4691 108.864 31.0265 107.809L26.8052 107.246L29.9008 103.095C34.3332 97.2551 36.0921 92.2596 36.1624 85.7865C36.1624 81.0724 35.881 79.8763 33.4186 74.6697C31.9411 71.4331 30.1119 68.5484 29.4787 68.1262C28.7752 67.7744 25.6092 66.8598 22.3729 66.1562C19.2069 65.3822 15.9706 64.5379 15.3374 64.3268C14.4931 63.975 14.071 64.1861 14.071 64.8193Z" fill="#7661D2"/>
<path d="M5.62839 76.5694C2.67349 78.1173 0 82.4092 0 85.6458C0 92.9632 7.03549 98.5216 13.6488 96.3404C19.2772 94.5111 22.3025 89.3045 20.9658 83.535C19.418 76.5694 11.9603 73.1921 5.62839 76.5694Z" fill="#7661D2"/>
<path d="M140.006 76.0065C133.815 78.4691 131.071 86.279 134.589 91.4153C137.896 96.3404 144.931 98.1698 149.012 95.1443C154.007 91.4856 155.344 86.0679 152.6 80.791C150.419 76.4287 144.579 74.1771 140.006 76.0065Z" fill="#7661D2"/>
<path d="M24.4132 124.555C22.584 125.54 21.2472 126.947 20.3326 128.917C18.6441 132.787 18.6441 134.757 20.614 138.556C24.1318 145.451 32.9965 146.155 38.2027 139.963C40.7355 137.008 41.228 133.631 39.7506 129.691C37.4288 123.64 30.5341 121.318 24.4132 124.555Z" fill="#7661D2"/>
<path d="M119.955 124.062C118.759 124.555 116.93 126.032 115.875 127.228C108.065 136.516 120.377 149.11 130.649 142.426C133.112 140.808 135.293 135.531 134.8 132.576C133.463 125.469 126.217 121.318 119.955 124.062Z" fill="#7661D2"/>
<path d="M74.7169 142.145C68.1036 143.552 64.5858 152.628 68.4554 158.257C74.3652 166.982 87.3808 162.901 87.3808 152.276C87.3808 145.311 81.6117 140.667 74.7169 142.145Z" fill="#7661D2"/>
</svg>
